<?xml version="1.0" encoding="UTF-8"?>
<!DOCTYPE svg PUBLIC "-//W3C//DTD SVG 1.1//EN" "http://www.w3.org/Graphics/SVG/1.1/DTD/svg11.dtd">
<!-- Creator: CorelDRAW -->
<svg xmlns="http://www.w3.org/2000/svg" xml:space="preserve" width="6.82666in" height="6.82666in" style="shape-rendering:geometricPrecision; text-rendering:geometricPrecision; image-rendering:optimizeQuality; fill-rule:evenodd; clip-rule:evenodd"
viewBox="0 0 6.82666 6.82666"
 xmlns:xlink="http://www.w3.org/1999/xlink">
 <defs>
  <style type="text/css">
   <![CDATA[
    .fil0 {fill:#FF9800}
    .fil1 {fill:#FFFFFE}
    .fil2 {fill:#FFFFFE;fill-rule:nonzero}
   ]]>
  </style>
 </defs>
 <g id="Layer_x0020_1">
  <metadata id="CorelCorpID_0Corel-Layer"/>
  <rect class="fil0" width="6.82666" height="6.82666" rx="0.853335" ry="0.853335"/>
  <g id="_318675072">
   <path id="_318666432" class="fil1" d="M2.02584 1.77676l2.77498 0 0.115866 0 -0.00874803 0.115524 -0.301622 3.98148 -0.00754331 0.0995591 -0.0995748 0 -2.17174 0 -0.0995748 0 -0.00754331 -0.0995591 -0.301622 -3.98148 -0.00874803 -0.115524 0.115866 0zm1.39641 1.61567c0.108098,0 0.205976,0.0438268 0.276827,0.114681 0.0708504,0.0708465 0.114677,0.168728 0.114677,0.276823 0,0.108094 -0.0438268,0.205972 -0.114677,0.276827 -0.0708504,0.0708465 -0.168728,0.114677 -0.276827,0.114677 -0.108094,0 -0.205972,-0.0438307 -0.276827,-0.114677 -0.0708465,-0.0708543 -0.114673,-0.168732 -0.114673,-0.276827 0,-0.108094 0.0438268,-0.205976 0.114673,-0.276823 0.0708543,-0.0708543 0.168732,-0.114681 0.276827,-0.114681zm-1.22339 0.851276l2.42894 0 -0.0256102 0.215079 -2.37111 0.00901575 -0.0322244 -0.224094zm-0.0539646 -1.21103l2.53687 0 -0.026752 0.215079 -2.47646 0.00901575 -0.0336575 -0.224094z"/>
   <path id="_318679848" class="fil2" d="M1.72421 1.45659c-0.0593898,0 -0.107539,0.0481496 -0.107539,0.107539 0,0.0593898 0.0481496,0.107539 0.107539,0.107539l3.37824 0c0.0593898,0 0.107539,-0.0481496 0.107539,-0.107539 0,-0.0593898 -0.0481496,-0.107539 -0.107539,-0.107539l-3.37824 0z"/>
   <path id="_318675096" class="fil2" d="M2.44812 0.853331l1.93043 0c0.108429,0 0.208165,0.0379331 0.281496,0.0990433 0.0787717,0.0656496 0.127669,0.157547 0.127669,0.259854l0 0.351898 -3.93701e-006 0.107539 -0.107535 0 -2.53368 0 -0.107535 0 -3.93701e-006 -0.107539 0 -0.351898c0,-0.102311 0.0488976,-0.194217 0.127669,-0.259854 0.0733268,-0.0611102 0.173071,-0.0990433 0.281496,-0.0990433z"/>
  </g>
 </g>
</svg>
